<svg xmlns="http://www.w3.org/2000/svg" viewBox="0 0 64 64" fill="none">
  <defs>
    <linearGradient id="g" x1="0" y1="0" x2="64" y2="64">
      <stop offset="0%" stop-color="#4F46E5"/>
      <stop offset="100%" stop-color="#7C3AED"/>
    </linearGradient>
    <linearGradient id="g2" x1="0" y1="0" x2="64" y2="64">
      <stop offset="0%" stop-color="#F59E0B"/>
      <stop offset="100%" stop-color="#EF4444"/>
    </linearGradient>
  </defs>
  <rect width="64" height="64" rx="16" fill="#0F172A"/>
  <!-- Dragon body -->
  <path d="M16 44c0 0 4-8 12-12l-2-2c-6 2-10 4-10 4" fill="url(#g2)"/>
  <!-- Pillar / palace -->
  <rect x="20" y="20" width="4" height="24" rx="1" fill="url(#g)"/>
  <rect x="32" y="24" width="4" height="20" rx="1" fill="url(#g)"/>
  <rect x="44" y="18" width="4" height="26" rx="1" fill="url(#g)"/>
  <rect x="18" y="18" width="36" height="4" rx="1" fill="url(#g)"/>
  <!-- Dragon head -->
  <path d="M34 12l-2 4h4l-2-4zm-2 4l-1 2c2 1 4 1 6 0l-1-2h-4z" fill="url(#g2)"/>
  <circle cx="33" cy="13" r="1" fill="#F59E0B"/>
  <!-- Star -->
  <text x="50" y="14" font-size="10" fill="#F59E0B">⭐</text>
  <!-- S -->
  <path d="M26 14h4v2h-3v2h4v2h-5v-6z" fill="url(#g)"/>
</svg>
